<svg width="33" height="33" viewBox="0 0 33 33" fill="none" xmlns="http://www.w3.org/2000/svg">
    <path fill-rule="evenodd" clip-rule="evenodd" d="M15.8247 3.50774C16.112 3.24252 16.5549 3.24254 16.8422 3.50779L20.5833 6.96182L20.5834 6.05874C20.5835 5.64456 20.9192 5.30884 21.3334 5.30884H24.8334C25.0323 5.30884 25.2231 5.38786 25.3637 5.52852C25.5044 5.66919 25.5834 5.85996 25.5834 6.05888L25.5831 11.5765L27.9627 13.7729L27.9627 13.7729C28.6729 14.4285 28.7172 15.5356 28.0617 16.2458C27.7304 16.6047 27.2642 16.8088 26.7758 16.8088H26.0834V28.0588C26.0834 28.4731 25.7476 28.8088 25.3334 28.8088H18.3334C17.9192 28.8088 17.5834 28.4731 17.5834 28.0588V22.8088H15.0834V28.0588C15.0834 28.4731 14.7476 28.8088 14.3334 28.8088H7.3334C6.91919 28.8088 6.5834 28.4731 6.5834 28.0588V16.8088H5.89105C4.92455 16.8088 4.14105 16.0253 4.14105 15.0588C4.14105 14.5704 4.34517 14.1042 4.70406 13.7729L15.8247 3.50774ZM16.3334 5.07957L5.72148 14.8751C5.67021 14.9225 5.64105 14.9891 5.64105 15.0588C5.64105 15.1969 5.75298 15.3088 5.89105 15.3088H7.3334C7.74762 15.3088 8.0834 15.6446 8.0834 16.0588V27.3088H13.5834V22.0588C13.5834 21.6446 13.9192 21.3088 14.3334 21.3088H18.3334C18.7476 21.3088 19.0834 21.6446 19.0834 22.0588V27.3088H24.5834V16.0588C24.5834 15.6446 24.9192 15.3088 25.3334 15.3088H26.7758C26.8455 15.3088 26.9121 15.2797 26.9595 15.2284C27.0531 15.127 27.0468 14.9688 26.9453 14.8751L24.3244 12.456C24.1705 12.314 24.083 12.1141 24.0831 11.9048L24.0834 6.80884H22.0833L22.0831 8.67494C22.083 8.97283 21.9067 9.24246 21.6338 9.36191C21.3609 9.48135 21.0432 9.42797 20.8243 9.22589L16.3334 5.07957Z" fill="#15191D" />
</svg>